# xmcd
#
# Track frame offsets:
# 150
# 20727
# 38755
# 55439
# 72527
# 90077
# 108826
# 123688
# 142071
# 159966
# 177377
# 193524
# 210498
# 225475
#
# Disc length: 3176 seconds
#
#
# Revision: 0
# Processed by: cddbd v1.5.2PL0 Copyright (c) Steve Scherf et al.
# Submitted via: Nero 7, 0, 8, 2 Carrie's first CD
#
DISCID=bf0c660e
DTITLE=Carrie Underwood - Some Hearts
DYEAR=2006
DGENRE=Country
TTITLE0=Wasted
TTITLE1=Don't forget to remember me
TTITLE2=Some hearts
TTITLE3=Jesus take the wheel
TTITLE4=The night before (life goes on)
TTITLE5=lessons learned
TTITLE6=Before he cheats
TTITLE7=Starts with goodbye
TTITLE8=I just can't live a lie
TTITLE9=We're young and beautiful
TTITLE10=That's where it is
TTITLE11=Whenever you remember
TTITLE12=I ain't in Checotah anymore
TTITLE13=Inside your heaven
EXTD=
EXTT0=
EXTT1=
EXTT2=
EXTT3=
EXTT4=
EXTT5=
EXTT6=
EXTT7=
EXTT8=
EXTT9=
EXTT10=
EXTT11=
EXTT12=
EXTT13=
PLAYORDER=
